HIERARCHY
ROOT Hips
{
	OFFSET 0.000000 103.266502 0.000000
	CHANNELS 6 Xposition Yposition Zposition Xrotation Yrotation Zrotation 
	JOINT Spine
	{
		OFFSET -0.002400 12.777504 0.315300
		CHANNELS 3 Xrotation Yrotation Zrotation
		JOINT Spine1
		{
			OFFSET -0.002067 5.816869 0.032633
			CHANNELS 3 Xrotation Yrotation Zrotation
			JOINT Spine1_split
			{
				OFFSET -0.002067 5.816869 0.032633
				CHANNELS 3 Xrotation Yrotation Zrotation
				JOINT Spine2
				{
					OFFSET -0.002067 5.816869 0.032633
					CHANNELS 3 Xrotation Yrotation Zrotation
					JOINT Neck
					{
						OFFSET -0.003700 21.199493 -0.826900
						CHANNELS 3 Xrotation Yrotation Zrotation
						JOINT Head
						{
							OFFSET 0.000000 20.442200 4.834800
							CHANNELS 3 Xrotation Yrotation Zrotation
							JOINT HeadTop_End
							{
								OFFSET 0.000000 34.668396 4.968400
								CHANNELS 3 Xrotation Yrotation Zrotation
								End Site
								{
									OFFSET 0.000000 0.000000 0.000000
								}
							}
						}
					}
					JOINT LeftShoulder
					{
						OFFSET 3.288150 8.794197 -1.372250
						CHANNELS 3 Xrotation Yrotation Zrotation
						JOINT LeftShoulder_split
						{
							OFFSET 3.288150 8.794197 -1.372250
							CHANNELS 3 Xrotation Yrotation Zrotation
							JOINT LeftArm
							{
								OFFSET 11.953299 -2.279007 -0.146200
								CHANNELS 3 Xrotation Yrotation Zrotation
								JOINT LeftForeArm
								{
									OFFSET 18.448900 0.000000 0.000000
									CHANNELS 3 Xrotation Yrotation Zrotation
									JOINT LeftHand
									{
										OFFSET 29.527798 0.000000 0.000000
										CHANNELS 3 Xrotation Yrotation Zrotation
										JOINT LeftHandThumb1
										{
											OFFSET 10.739754 -2.369614 9.225399
											CHANNELS 3 Xrotation Yrotation Zrotation
											JOINT LeftHandThumb2
											{
												OFFSET 4.926170 -2.844131 2.844125
												CHANNELS 3 Xrotation Yrotation Zrotation
												JOINT LeftHandThumb3
												{
													OFFSET 4.614891 -2.664413 2.664409
													CHANNELS 3 Xrotation Yrotation Zrotation
													JOINT LeftHandThumb4
													{
														OFFSET 4.432465 -2.559082 2.559083
														CHANNELS 3 Xrotation Yrotation Zrotation
														End Site
														{
															OFFSET 0.000000 0.000000 0.000000
														}
													}
												}
											}
										}
										JOINT LeftHandIndex1
										{
											OFFSET 26.467674 0.187653 6.405298
											CHANNELS 3 Xrotation Yrotation Zrotation
											JOINT LeftHandIndex2
											{
												OFFSET 8.792900 0.000000 0.000000
												CHANNELS 3 Xrotation Yrotation Zrotation
												JOINT LeftHandIndex3
												{
													OFFSET 10.075203 0.000000 0.000000
													CHANNELS 3 Xrotation Yrotation Zrotation
													End Site
													{
														OFFSET 0.000000 0.000000 0.000000
													}
												}
											}
										}
										JOINT LeftHandMiddle1
										{
											OFFSET 25.764404 0.000000 0.000000
											CHANNELS 3 Xrotation Yrotation Zrotation
											JOINT LeftHandMiddle2
											{
												OFFSET 9.393974 0.000000 0.000000
												CHANNELS 3 Xrotation Yrotation Zrotation
												JOINT LeftHandMiddle3
												{
													OFFSET 10.771950 0.000000 0.000000
													CHANNELS 3 Xrotation Yrotation Zrotation
													End Site
													{
														OFFSET 0.000000 0.000000 0.000000
													}
												}
											}
										}
										JOINT LeftHandRing1
										{
											OFFSET 24.660927 0.144547 -6.225808
											CHANNELS 3 Xrotation Yrotation Zrotation
											JOINT LeftHandRing2
											{
												OFFSET 9.393799 0.000000 0.000000
												CHANNELS 3 Xrotation Yrotation Zrotation
												JOINT LeftHandRing3
												{
													OFFSET 9.928497 0.000000 0.000000
													CHANNELS 3 Xrotation Yrotation Zrotation
													End Site
													{
														OFFSET 0.000000 0.000000 0.000000
													}
												}
											}
										}
										JOINT LeftHandPinky1
										{
											OFFSET 23.655350 0.125290 -12.815412
											CHANNELS 3 Xrotation Yrotation Zrotation
											JOINT LeftHandPinky2
											{
												OFFSET 8.425102 0.000000 0.000000
												CHANNELS 3 Xrotation Yrotation Zrotation
												JOINT LeftHandPinky3
												{
													OFFSET 8.147003 0.000000 0.000000
													CHANNELS 3 Xrotation Yrotation Zrotation
													End Site
													{
														OFFSET 0.000000 0.000000 0.000000
													}
												}
											}
										}
									}
								}
							}
						}
					}
					JOINT RightShoulder
					{
						OFFSET -3.249400 8.794197 -1.372250
						CHANNELS 3 Xrotation Yrotation Zrotation
						JOINT RightShoulder_split
						{
							OFFSET -3.249400 8.794197 -1.372250
							CHANNELS 3 Xrotation Yrotation Zrotation
							JOINT RightArm
							{
								OFFSET -11.953299 -2.279007 -0.146200
								CHANNELS 3 Xrotation Yrotation Zrotation
								JOINT RightForeArm
								{
									OFFSET -18.448900 0.000000 0.000000
									CHANNELS 3 Xrotation Yrotation Zrotation
									JOINT RightHand
									{
										OFFSET -29.527802 0.000000 0.000000
										CHANNELS 3 Xrotation Yrotation Zrotation
										JOINT RightHandThumb1
										{
											OFFSET -10.739754 -2.369614 9.225399
											CHANNELS 3 Xrotation Yrotation Zrotation
											JOINT RightHandThumb2
											{
												OFFSET -4.926170 -2.844131 2.844125
												CHANNELS 3 Xrotation Yrotation Zrotation
												JOINT RightHandThumb3
												{
													OFFSET -4.614891 -2.664413 2.664409
													CHANNELS 3 Xrotation Yrotation Zrotation
													JOINT RightHandThumb4
													{
														OFFSET -4.432465 -2.559082 2.559083
														CHANNELS 3 Xrotation Yrotation Zrotation
														End Site
														{
															OFFSET 0.000000 0.000000 0.000000
														}
													}
												}
											}
										}
										JOINT RightHandIndex1
										{
											OFFSET -26.467674 0.187653 6.405298
											CHANNELS 3 Xrotation Yrotation Zrotation
											JOINT RightHandIndex2
											{
												OFFSET -8.792900 0.000000 0.000000
												CHANNELS 3 Xrotation Yrotation Zrotation
												JOINT RightHandIndex3
												{
													OFFSET -10.075203 0.000000 0.000000
													CHANNELS 3 Xrotation Yrotation Zrotation
													End Site
													{
														OFFSET 0.000000 0.000000 0.000000
													}
												}
											}
										}
										JOINT RightHandMiddle1
										{
											OFFSET -25.764404 0.000000 0.000000
											CHANNELS 3 Xrotation Yrotation Zrotation
											JOINT RightHandMiddle2
											{
												OFFSET -9.393974 0.000000 0.000000
												CHANNELS 3 Xrotation Yrotation Zrotation
												JOINT RightHandMiddle3
												{
													OFFSET -10.771950 0.000000 0.000000
													CHANNELS 3 Xrotation Yrotation Zrotation
													End Site
													{
														OFFSET 0.000000 0.000000 0.000000
													}
												}
											}
										}
										JOINT RightHandRing1
										{
											OFFSET -24.660927 0.144547 -6.225808
											CHANNELS 3 Xrotation Yrotation Zrotation
											JOINT RightHandRing2
											{
												OFFSET -9.393799 0.000000 0.000000
												CHANNELS 3 Xrotation Yrotation Zrotation
												JOINT RightHandRing3
												{
													OFFSET -9.928497 0.000000 0.000000
													CHANNELS 3 Xrotation Yrotation Zrotation
													End Site
													{
														OFFSET 0.000000 0.000000 0.000000
													}
												}
											}
										}
										JOINT RightHandPinky1
										{
											OFFSET -23.655350 0.125290 -12.815412
											CHANNELS 3 Xrotation Yrotation Zrotation
											JOINT RightHandPinky2
											{
												OFFSET -8.425102 0.000000 0.000000
												CHANNELS 3 Xrotation Yrotation Zrotation
												JOINT RightHandPinky3
												{
													OFFSET -8.147003 0.000000 0.000000
													CHANNELS 3 Xrotation Yrotation Zrotation
													End Site
													{
														OFFSET 0.000000 0.000000 0.000000
													}
												}
											}
										}
									}
								}
							}
						}
					}
				}
			}
		}
	}
	JOINT LeftUpLeg
	{
		OFFSET 11.394100 -6.187798 -0.413800
		CHANNELS 3 Xrotation Yrotation Zrotation
		JOINT LeftLeg
		{
			OFFSET 0.430247 -32.302673 3.732800
			CHANNELS 3 Xrotation Yrotation Zrotation
			JOINT LeftFoot
			{
				OFFSET -0.430247 -48.264931 -6.423300
				CHANNELS 3 Xrotation Yrotation Zrotation
				JOINT LeftToeBase
				{
					OFFSET 4.230900 -16.068199 23.438400
					CHANNELS 3 Xrotation Yrotation Zrotation
					JOINT LeftToe_End
					{
						OFFSET 4.510700 0.695400 19.974600
						CHANNELS 3 Xrotation Yrotation Zrotation
						End Site
						{
							OFFSET 0.000000 0.000000 0.000000
						}
					}
				}
			}
		}
	}
	JOINT RightUpLeg
	{
		OFFSET -11.333700 -6.187798 -0.413800
		CHANNELS 3 Xrotation Yrotation Zrotation
		JOINT RightLeg
		{
			OFFSET -0.430392 -32.302628 3.733000
			CHANNELS 3 Xrotation Yrotation Zrotation
			JOINT RightFoot
			{
				OFFSET 0.430392 -48.264973 -6.423500
				CHANNELS 3 Xrotation Yrotation Zrotation
				JOINT RightToeBase
				{
					OFFSET -4.230900 -16.068199 23.438400
					CHANNELS 3 Xrotation Yrotation Zrotation
					JOINT RightToe_End
					{
						OFFSET -4.510700 0.695400 19.974600
						CHANNELS 3 Xrotation Yrotation Zrotation
						End Site
						{
							OFFSET 0.000000 0.000000 0.000000
						}
					}
				}
			}
		}
	}
}
MOTION
Frames: 5
Frame Time: 0.016667
-1.946567 100.159302 -1.829334 1.169946 6.146900 5.921111 8.187577 -0.984910 6.399887 1.977286 -0.412824 1.344542 0.000000 0.000000 0.000000 1.971130 -0.404077 1.350294 1.471616 0.251578 3.770397 -5.997183 -13.685523 -0.924697 -0.000001 -0.000001 0.000002 0.635353 -5.283650 -12.880632 0.000000 0.000000 0.000000 5.726505 -4.951277 -42.398638 -0.000016 -65.564386 -0.000024 -5.370030 -8.061424 -58.939676 -7.220044 -16.942344 15.004582 8.206658 0.329544 4.976444 -0.103950 -18.233016 11.581008 -0.000000 0.000000 0.000002 -0.931685 -1.396876 -13.797127 1.148779 3.485792 -36.471014 0.000002 0.000001 0.000000 0.832899 5.259378 -29.649158 1.128753 3.458571 -36.139975 -0.000003 0.000006 -0.000002 6.569945 12.601608 -38.071235 2.521125 4.813774 -55.264655 -0.000002 -0.000002 -0.000000 9.474792 25.638736 -47.960007 1.102899 3.422971 -35.709636 -0.000000 0.000001 -0.000000 1.688117 19.320708 11.981021 0.000000 0.000000 0.000000 -17.246742 18.683091 60.973119 -0.000900 95.131770 0.000896 -19.139418 -6.743528 -4.913995 17.887596 49.319065 12.919646 30.991915 -39.602888 28.049289 11.489510 -46.546803 8.464876 -0.000002 0.000001 -0.000001 3.343368 -6.897280 53.623252 1.487410 -3.413773 47.076522 -0.000000 0.000000 -0.000002 3.298265 -6.778204 63.367025 1.097392 -3.004780 40.118182 -0.000001 0.000000 0.000002 5.188526 -7.512440 67.475862 0.689925 -2.441252 31.557407 -0.000000 0.000000 0.000002 0.768513 -22.546637 59.828919 1.001582 -2.887415 38.254134 -0.000000 -0.000000 -0.000001 -10.829677 6.198852 0.738293 16.325923 4.856670 0.107897 -4.539964 0.506684 -5.250981 -2.517685 -0.000006 -0.000000 0.000000 -0.000003 -0.000000 -15.866500 -10.640254 -13.658597 25.139259 -0.831721 -1.983851 -10.364959 -8.046716 6.904447 -2.518104 -0.000003 0.000004 -0.000000 0.000002 0.000000 
-1.913644 100.153442 -1.771155 1.140507 6.077828 5.927901 8.153432 -1.134355 6.406054 1.971238 -0.454234 1.335349 0.000000 0.000000 0.000000 1.964733 -0.445019 1.341882 1.502338 0.283003 3.704579 -6.423702 -13.408005 -1.036775 -0.000000 -0.000000 -0.000001 0.638345 -5.316639 -12.830690 0.000000 0.000000 0.000000 5.804756 -5.004717 -42.414939 -0.000027 -65.564297 -0.000035 -5.414969 -8.062191 -59.000690 -7.220048 -16.942342 15.004578 8.205359 0.326303 4.976841 -0.100197 -18.247771 11.598979 -0.000001 0.000000 0.000005 -0.925460 -1.417181 -13.702025 1.148242 3.485093 -36.462200 -0.000001 -0.000002 0.000002 0.830611 5.255390 -29.604068 1.128880 3.458731 -36.142151 0.000002 0.000002 -0.000001 6.563245 12.601801 -38.034544 2.517014 4.810944 -55.215751 -0.000001 -0.000001 0.000000 9.464123 25.640243 -47.933021 1.103980 3.424463 -35.727531 0.000001 0.000001 -0.000001 1.742144 19.638221 11.894618 0.000000 0.000000 0.000000 -14.648415 20.367930 60.669176 0.000116 96.790010 -0.000127 -19.473462 -6.938347 -5.387760 16.983668 48.490416 13.131519 30.991942 -39.602881 28.049266 11.603370 -46.676932 8.513019 -0.000003 0.000001 0.000001 3.357187 -6.907510 53.814671 1.499350 -3.424797 47.276688 0.000001 0.000001 -0.000002 3.331225 -6.794221 63.393547 1.109702 -3.019323 40.352501 -0.000001 -0.000000 -0.000001 5.186952 -7.514264 67.421876 0.696311 -2.451621 31.707316 -0.000001 0.000000 0.000000 0.773487 -22.549309 59.891422 0.988324 -2.870535 37.990298 -0.000001 0.000000 0.000001 -10.736661 6.229059 0.724060 16.343850 4.881095 0.095213 -4.645140 0.507897 -5.192799 -2.495859 -0.000008 -0.000001 -0.000000 -0.000001 -0.000000 -15.729997 -10.346727 -13.595918 25.131968 -1.056522 -1.985518 -10.384662 -8.072689 6.983012 -2.518103 -0.000004 0.000004 0.000000 0.000001 0.000000 
-1.881270 100.147362 -1.717244 1.107037 6.001830 5.917696 8.118544 -1.312314 6.409870 1.966686 -0.503289 1.325315 0.000000 0.000000 0.000000 1.959777 -0.493538 1.332816 1.524706 0.316483 3.633390 -6.840200 -13.129488 -1.161059 -0.000000 0.000000 0.000001 0.638523 -5.362368 -12.762703 0.000000 0.000000 0.000000 5.906807 -5.087489 -42.408822 0.000015 -65.558608 0.000007 -5.511689 -8.054033 -59.056404 -7.220044 -16.942344 15.004578 8.201859 0.319224 4.980795 -0.095884 -18.265802 11.621330 -0.000001 0.000000 0.000000 -0.919236 -1.438411 -13.606798 1.147737 3.484402 -36.453847 0.000001 0.000001 0.000000 0.828524 5.251729 -29.562899 1.128916 3.458806 -36.143264 0.000001 -0.000000 0.000001 6.558667 12.601993 -38.009214 2.513622 4.808597 -55.175381 0.000000 0.000000 0.000000 9.456698 25.641290 -47.914330 1.106376 3.427793 -35.767597 0.000000 -0.000000 -0.000001 1.812176 19.996178 11.753381 0.000000 0.000000 0.000000 -12.150130 22.247777 60.206027 0.000121 98.202609 -0.000123 -19.507444 -7.108536 -5.826926 16.072016 47.646314 13.324319 30.991966 -39.602851 28.049282 11.720554 -46.810285 8.562885 0.000001 0.000001 -0.000001 3.371439 -6.918010 54.010961 1.511645 -3.436084 47.481938 0.000000 0.000000 0.000001 3.365035 -6.810618 63.420786 1.122379 -3.034170 40.592777 0.000001 -0.000000 -0.000002 5.185269 -7.516144 67.366477 0.702895 -2.462252 31.861111 -0.000001 -0.000001 0.000001 0.778643 -22.552047 59.955558 0.974808 -2.853180 37.719761 -0.000001 0.000000 0.000000 -10.643400 6.254380 0.739247 16.354000 4.911605 0.079950 -4.721970 0.509476 -5.198286 -2.463930 0.000000 -0.000000 -0.000000 0.000002 -0.000000 -15.583657 -10.053402 -13.513942 25.115053 -1.281320 -1.987073 -10.398028 -8.096849 7.057857 -2.518103 -0.000002 0.000004 0.000000 0.000002 0.000000 
-1.843514 100.143280 -1.665435 1.080713 5.944523 5.896303 8.087766 -1.513583 6.407497 1.963645 -0.558699 1.313112 0.000000 0.000000 0.000000 1.956315 -0.548352 1.321719 1.539979 0.351072 3.559210 -7.224473 -12.849042 -1.292566 0.000000 -0.000001 -0.000001 0.637412 -5.414065 -12.664160 0.000000 0.000000 0.000000 6.031521 -5.194024 -42.395244 0.000002 -65.552058 0.000017 -5.622248 -8.057228 -59.067421 -7.220045 -16.942342 15.004578 8.194854 0.306800 4.986439 -0.091804 -18.279951 11.640754 0.000001 0.000002 0.000002 -0.913711 -1.457651 -13.524785 1.147210 3.483664 -36.444896 0.000002 -0.000003 0.000000 0.826820 5.248736 -29.529203 1.129003 3.458928 -36.144357 0.000002 0.000001 0.000001 6.557022 12.602192 -37.999542 2.511947 4.807421 -55.155202 -0.000001 0.000002 0.000001 9.453355 25.641773 -47.905789 1.108086 3.430154 -35.796233 -0.000000 -0.000000 0.000000 1.891720 20.393154 11.594520 0.000000 0.000000 0.000000 -9.757490 24.346243 59.504075 -0.000251 99.316947 0.000259 -19.132782 -7.232183 -6.153907 15.156378 46.791352 13.496838 30.992011 -39.602844 28.049295 11.840637 -46.946247 8.614368 0.000001 0.000001 0.000003 3.386097 -6.928663 54.211229 1.524211 -3.447550 47.691355 0.000000 0.000000 -0.000001 3.399553 -6.827306 63.448557 1.135367 -3.049254 40.837964 -0.000000 0.000001 0.000004 5.183519 -7.518027 67.309971 0.709673 -2.473085 32.018096 -0.000000 0.000000 0.000002 0.783932 -22.554842 60.020984 0.961110 -2.835415 37.443746 -0.000001 -0.000000 -0.000001 -10.561090 6.280892 0.760508 16.359288 4.919368 0.063634 -4.799133 0.510506 -5.191810 -2.425413 0.000011 0.000000 -0.000000 0.000001 -0.000000 -15.428132 -9.758546 -13.421522 25.078313 -1.531728 -1.988591 -10.402117 -8.120272 7.140815 -2.518103 -0.000002 0.000004 -0.000000 -0.000001 -0.000000 
-1.794233 100.141052 -1.620229 1.032406 5.882530 5.877501 8.062161 -1.733110 6.397819 1.960707 -0.619252 1.297408 0.000000 0.000000 0.000000 1.952973 -0.608264 1.307200 1.554708 0.385659 3.484316 -7.572359 -12.570903 -1.431674 -0.000000 -0.000001 -0.000001 0.638615 -5.466735 -12.525822 0.000000 0.000000 0.000000 6.178443 -5.316454 -42.390982 0.000008 -65.547188 0.000006 -5.721590 -8.083211 -59.018743 -7.220046 -16.942346 15.004578 8.186015 0.286593 4.993259 -0.088236 -18.286413 11.654000 0.000002 -0.000001 -0.000001 -0.908708 -1.473429 -13.455713 1.146532 3.482730 -36.433704 0.000000 0.000003 -0.000003 0.825189 5.245841 -29.496773 1.129126 3.459102 -36.146509 -0.000001 0.000002 -0.000002 6.557043 12.602397 -37.998863 2.511782 4.807303 -55.153033 -0.000001 -0.000001 0.000000 9.452584 25.641855 -47.903942 1.107752 3.429696 -35.790772 -0.000001 0.000001 -0.000000 1.973436 20.822757 11.448870 0.000000 0.000000 0.000000 -7.453069 26.678277 58.483003 -0.000214 100.113696 0.000235 -18.399608 -7.375250 -6.326800 14.240181 45.930003 13.648355 30.992038 -39.602806 28.049306 11.963010 -47.084254 8.667133 0.000004 0.000002 -0.000003 3.401055 -6.939495 54.414597 1.537020 -3.459146 47.904024 -0.000000 -0.000001 -0.000000 3.434606 -6.844241 63.476773 1.148677 -3.064542 41.086935 -0.000001 -0.000000 0.000003 5.181698 -7.519932 67.252577 0.716552 -2.484080 32.177537 -0.000000 0.000001 0.000000 0.789315 -22.557683 60.087421 0.947275 -2.817297 37.163476 0.000000 0.000001 0.000004 -10.453561 6.312609 0.767368 16.363262 4.934553 0.047713 -4.891697 0.511253 -5.147435 -2.383014 0.000005 0.000000 -0.000000 0.000003 0.000000 -15.249220 -9.459960 -13.337578 25.031658 -1.781779 -1.990030 -10.396140 -8.142986 7.231768 -2.518103 -0.000005 0.000004 -0.000000 -0.000001 -0.000000 
